<svg width="1446" height="1001" viewBox="0 0 1446 1001" fill="none" xmlns="http://www.w3.org/2000/svg">
<path d="M596.933 487.395C599.699 487.673 602.213 488.047 604.737 488.151C612.965 488.49 621.237 489.958 629.372 487.352C629.728 487.238 630.19 487.309 630.465 487.107C634.782 483.927 639.74 482.281 644.846 480.935C645.75 480.697 646.409 479.871 646.844 479.015C649.731 473.335 654.197 469.036 659.83 466.468C671.586 461.107 676.361 451.209 678.761 439.449C681.361 426.708 682.49 413.853 682.871 400.846C683.174 390.5 682.882 380.173 682.554 369.869C682.233 359.777 681.867 349.6 679.39 339.68C678.175 334.815 675.698 330.71 672.752 326.727C667.434 319.539 662.836 311.819 656.875 305.104C653.492 301.293 649.581 298.021 645.862 294.555C645.387 294.112 644.882 293.644 644.045 293.852C643.233 294.4 642.773 295.427 642.989 296.244C643.617 298.619 644.203 300.849 643.22 303.345C642.812 304.382 644.427 304.843 645.2 305.457C648.448 308.034 648.486 309.399 645.282 312.05C644.412 312.771 643.588 313.576 642.63 314.157C641.159 315.051 640.818 315.876 641.76 317.55C642.932 319.631 641.48 322.349 639.085 323.084C637.897 323.449 636.883 323.69 636.447 325.196C635.263 329.276 633.204 329.896 629.59 327.478C629.283 327.273 628.968 327.081 628.313 326.664C626.631 330.633 623.78 330.194 620.698 328.612C619.374 327.932 618.762 328.993 618.164 329.749C617.398 330.718 616.044 331.528 616.767 333.134C617.115 333.906 617.574 334.64 617.828 335.44C618.709 338.21 617.885 339.567 615.042 340.035C614.02 340.203 613.062 340.186 612.445 341.334C610.868 344.269 609.277 344.805 606.109 343.665C605.686 343.512 605.286 343.29 604.83 343.079C603.528 344.826 602.628 346.734 600.92 348.003C597.866 350.271 595.827 349.947 594.036 346.624C593.258 345.179 592.589 344.571 590.782 344.932C587.766 345.535 585.881 343.472 584.274 341.302C582.053 338.305 582.171 338.39 579.228 340.331C577.133 341.712 574.741 342.648 572.51 340.516C571.487 339.538 570.499 339.876 569.382 340.029C566.062 340.484 565.068 339.856 563.974 336.62C563.749 335.954 563.535 335.3 562.863 335.108C560.74 334.5 560.289 332.801 560.098 330.968C559.931 329.374 559.196 329.13 557.791 329.633C556.38 330.138 554.917 330.543 553.445 330.824C550.305 331.425 549.437 330.649 549.919 327.446C550.237 325.33 550.929 323.271 551.503 320.989C549.146 320.284 546.707 321.278 544.301 320.736C543.689 317.888 544.565 315.272 545.346 312.713C546.042 310.433 545.798 308.756 543.629 307.467C542.77 306.956 542.124 306.086 541.416 305.413C536.969 307.199 536.969 307.199 531.89 302.473C529.685 305.748 528.203 309.461 525.542 312.388C525.037 312.944 524.604 313.568 524.073 314.096C522.483 315.68 521.128 315.503 520.038 313.502C518.463 310.611 516.872 307.729 515.352 304.96C514.525 304.785 514.365 305.335 514.105 305.664C510.727 309.94 507.612 309.596 505.688 304.493C504.773 302.065 503.818 301.215 501.514 302.846C500.919 303.267 500.14 303.458 499.42 303.665C496.239 304.577 494.788 303.581 494.473 300.268C494.402 299.52 494.368 298.752 494.453 298.009C494.681 296.018 494.317 294.874 491.84 294.863C489.198 294.851 488.189 293.333 488.208 290.21C488.222 287.935 488.896 285.696 485.436 284.878C483.584 284.44 484.769 282.453 485.779 281.792C488.251 280.176 487.711 278.65 486.274 276.694C485.143 275.153 484.818 273.362 485.173 271.34C485.611 268.849 485.984 266.603 482.161 265.644C479.801 265.052 477.854 262.253 478.054 259.175C478.216 256.699 477.208 255.771 474.825 255.74C473.735 255.726 472.598 255.351 471.573 254.922C469.027 253.854 468.447 252.256 469.511 249.703C470.441 247.474 472.132 245.807 473.732 244.093C474.764 242.988 474.994 242.118 474.133 240.667C470.38 234.351 470.915 232.977 478.03 231.434C480.621 230.872 481.902 229.99 481.451 227.2C481.203 225.667 482.426 224.634 483.322 223.318C481.42 221.503 480.032 219.383 479.526 216.68C479.214 215.013 478.169 214.507 476.367 215.375C472.811 217.087 470.514 215.725 470.131 211.805C469.991 210.378 469.723 209.434 468.009 209.578C465.529 209.787 464.384 208.126 464.55 206.102C464.915 201.64 463.738 198.636 459.469 196.264C455.644 194.139 456.458 190.441 460.567 188.692C467.834 185.599 467.834 185.599 467.836 177.716C467.836 177.339 467.838 176.962 467.836 176.585C467.823 174.499 467.681 172.373 469.924 171.142C472.263 169.858 474.066 171.093 475.875 172.36C476.167 172.565 476.487 172.73 476.87 172.958C478.394 170.806 479.347 168.982 476.725 166.874C475.038 165.517 475.907 162.918 478.448 161.749C480.657 160.734 483.014 159.97 485.378 159.384C487.281 158.912 487.813 157.821 487.614 156.106C487.372 154.032 486.776 152.057 485.804 150.207C484.576 147.87 485.046 146.657 487.545 145.813C487.809 145.723 488.103 145.658 488.378 145.674C491.396 145.852 493.122 144.179 494.819 141.862C496.919 138.994 499.122 139.103 501.754 141.476C503.317 142.885 504.221 144.764 505.422 146.404C506.446 146.368 506.928 145.57 507.59 145.099C510.641 142.924 513.342 143.736 514.595 147.318C515.177 148.983 515.712 150.448 517.817 148.939C516.69 144.88 517.185 144.025 521.44 142.732C522.394 142.442 523.272 142.168 523.277 140.954C523.289 137.773 523.942 135.084 528.283 135.075C525.638 133.552 525.456 131.433 525.452 129.073C525.449 126.99 525.605 124.723 523.095 123.502C521.803 122.875 522.099 121.356 522.181 120.162C522.264 118.95 522.383 117.689 522.794 116.562C523.644 114.228 523.37 112.537 521.485 110.581C518.671 107.662 519.318 104.306 523.111 103.134C528.478 101.476 529.559 98.4133 528.652 93.2651C527.853 88.7316 528.905 88.0806 533.662 88.4567C533.849 88.4715 534.035 88.5143 534.222 88.5311C540.167 89.0617 540.995 88.7782 542.728 82.9806C543.651 79.8895 545.277 79.1948 548.033 79.548C550.366 79.847 552.445 79.6254 553.043 76.3109C549.22 74.9495 549.14 72.2889 551.734 69.1359C551.002 68.8544 550.681 68.6388 550.347 68.6167C545.586 68.3002 544.161 65.9874 546.077 61.4735C546.515 60.4433 546.647 59.7134 546.05 58.6273C544.551 55.901 545.106 53.9839 547.882 52.5399C549.827 51.5279 550.689 50.7515 549.162 48.5387C547.607 46.2857 549.12 43.4974 551.92 42.8775C552.465 42.7568 553.053 42.8379 553.607 42.7418C557.646 42.0409 561.228 40.9885 561.472 35.7768C561.565 33.7817 562.45 31.7634 563.26 29.8783C564.176 27.7473 565.826 26.9043 568.066 28.1713C569.457 28.9585 570.99 29.6059 572.159 30.6521C574.052 32.3473 575.644 32.441 577.894 31.1247C583.896 27.6145 586.299 28.7529 588.142 35.56C588.212 35.8205 588.376 36.0556 588.595 36.5046C591.329 36.3193 594.128 35.527 596.899 36.2088C600.074 36.9902 601.173 39.0903 600.334 42.7894C603.11 43.2119 605.776 44.0135 608.018 46.1368C609.711 42.0267 610.433 37.8931 612.993 34.4131C613.738 34.9224 614.435 35.2585 614.949 35.7754C616.807 37.6426 618.568 38.1652 620.749 36.1057C622.265 34.6746 623.976 35.6166 625.426 36.5264C626.606 37.266 627.648 38.2232 628.751 39.0841C632.368 37.377 632.998 33.7202 630.089 31.3218C627.181 28.9237 627.279 26.3384 630.398 24.2114C631.895 23.1912 633.598 22.5896 635.354 22.2429C637.749 21.7702 638.839 20.2666 639.185 17.9825C639.437 16.3153 639.717 14.6456 640.114 13.0086C640.782 10.2596 642.654 8.93476 645.434 8.87231C646.848 8.84053 648.229 8.69342 649.63 8.44152C650.98 8.19863 651.746 7.70599 652.327 6.40276C653.71 3.29972 655.926 2.72928 658.95 4.49834C660.889 5.63261 662.807 6.80209 664.79 7.98892C666.577 6.62774 668.264 5.34811 670.42 4.73903C674.599 3.55786 677.259 4.67705 678.371 8.89769C678.968 11.1663 680.177 12.1405 682.21 12.826C684.464 13.5862 687.018 14.0463 688.041 16.7417C688.217 17.2056 688.749 17.3585 689.252 17.215C689.917 17.0253 689.952 16.4505 690.052 15.8769C691.159 9.52474 692.884 8.10777 699.174 8.42485C700.174 7.21787 699.112 5.18585 700.336 4.28149C702.224 2.88707 703.56 0.387053 705.839 0.0436819C708.266 -0.321864 710.115 1.6754 711.704 3.47352C712.321 4.17145 712.897 4.90568 713.651 5.81536C714.954 5.0086 716.164 4.15942 717.461 3.47451C720.888 1.66537 723.272 2.43035 724.695 5.96056C725.262 7.36566 726.063 7.9774 727.472 8.36419C730.316 9.14479 733.19 9.30503 736.107 9.51822C738.851 9.7188 739.579 8.40068 739.779 6.16227C739.91 4.69315 739.597 2.85957 741.281 2.21268C743.259 1.45243 745.212 2.1282 746.788 3.50784C748.203 4.74598 749.543 6.08039 750.822 7.4595C752.156 8.89849 753.461 8.84863 755.075 7.89703C760.825 4.50674 762.269 5.00738 765.162 11.1992C765.398 11.7061 765.624 12.2186 766.004 13.0607C772.094 10.3004 774.934 14.1825 777.404 19.1279C780.352 17.2502 782.999 17.1211 784.957 20.5116C785.445 21.3566 786.287 20.9679 786.966 20.5811C787.703 20.1618 788.406 19.683 789.151 19.2796C793.259 17.0542 794.342 17.4656 796.607 22.0813C803.911 21.5303 806.418 24.4075 804.367 31.1435C806.932 33.1661 811.983 34.1033 808.005 39.0966C809.754 40.3577 811.326 41.3672 812.75 42.5542C814.037 43.6266 814.62 44.8742 813.074 46.3418C811.818 47.5341 811.391 48.9064 812.318 50.6421C812.722 51.3996 812.653 52.4952 812.56 53.413C812.409 54.9028 813.079 55.6672 814.374 56.1865C815.238 56.5324 816.083 56.9899 816.833 57.5391C819.638 59.5933 819.953 61.4722 817.725 64.1479C816.48 65.642 816.513 66.5361 818.042 67.827C821.066 70.38 821.165 71.883 819.023 75.3246C819.271 76.304 820.209 76.7224 820.806 77.4223C821.355 78.0656 821.946 78.6735 822.741 79.5392C823.222 77.7915 823.941 76.2794 825.418 75.4183C826.964 74.5168 828.531 75.2531 830.069 75.6207C830.761 75.7859 831.323 75.7553 831.803 75.0991C832.69 73.8845 833.754 72.7883 834.555 71.5231C835.458 70.0965 835.616 68.6378 834.556 67.0457C833.589 65.5931 832.479 63.9316 833.653 62.0845C834.954 60.0367 837.126 60.0906 839.211 60.1353C840.241 60.1573 841.267 60.3236 842.611 60.4557C842.87 56.4492 845.049 54.4928 849.01 54.9464C850.582 49.0852 855.197 49.9713 857.815 53.3335C859.194 55.1043 860.375 57.029 861.739 59.0222C863.923 57.9963 866.07 56.8465 868.322 55.9658C871.115 54.8735 872.789 55.5298 874.032 58.2828C875.112 60.6752 875.977 63.1785 876.758 65.6884C877.439 67.8767 878.566 69.2346 881.004 69.564C882.937 69.8251 884.861 70.4168 886.689 71.1219C889.61 72.2486 889.824 73.1986 888.505 76.09C887.655 77.9532 885.839 78.9997 884.775 80.9064C886.213 82.9175 889.27 83.7511 889.48 86.8026C889.717 90.2373 887.296 90.9951 884.66 91.5472C884.181 94.8226 888.863 97.6419 885.19 101.017C886.46 103.425 890.069 103.946 890.051 107.261C890.037 109.779 889.006 110.539 883.857 111.462C883.632 113.761 884.61 116.772 881.468 117.87C879.083 118.704 877.725 116.772 876.243 115.054C874.878 116.644 873.553 117.99 871.83 119.001C869.76 120.217 870.536 126.453 872.77 127.301C875.089 128.181 876.024 129.963 876.35 132.393C878.296 132.029 880.05 131.295 881.943 131.533C883.03 131.669 883.384 130.959 883.466 129.966C883.682 127.333 885.133 126.006 887.771 126.404C889.651 126.688 890.552 125.874 891.167 124.26C891.532 123.301 892.048 122.377 892.627 121.526C894.77 118.376 896.864 118.267 899.314 121.131C900.165 122.127 900.993 123.143 901.954 124.296C903.586 122.974 905.421 122.091 907.39 121.485C910.554 120.51 912.198 120.955 913.849 123.761C914.724 125.248 915.485 125.38 916.989 124.801C921.133 123.204 922.822 123.609 925.582 127.025C926.545 128.215 927.263 127.784 928.232 127.396C932.02 125.876 933.006 126.436 933.862 130.416C934.229 132.119 934.242 133.786 933.722 135.437C932.889 138.083 933.616 139.739 936.482 140.392C938.03 140.745 939.512 141.415 940.995 142.012C944.084 143.256 945.081 146.093 942.517 148.112C938.477 151.294 939.28 154.408 941.102 158.174C942.061 160.156 942.87 162.397 941.332 164.604C940.804 165.361 941.366 166.043 941.622 166.728C942.05 167.873 942.63 168.98 942.903 170.16C943.377 172.201 943.819 174.358 941.292 175.507C939.217 176.45 937.287 175.487 936.02 173.126C934.434 176.733 931.821 179.726 928.794 182.359C927.617 183.383 926.575 181.776 925.388 181.724C924.486 182.741 925.357 183.442 925.787 184.212C927.992 188.154 926.667 192.518 922.613 194.668C920.617 195.727 920.364 199.878 922.348 201.102C924.226 202.261 925.927 203.63 927.25 205.317C928.681 207.141 930.196 207.159 932.177 206.568C938.831 204.583 940.705 206.03 940.946 213.163C940.959 213.54 941.016 213.929 940.946 214.292C940.351 217.366 941.633 219.059 944.508 220.305C948.927 222.221 949.452 223.934 946.002 227.357C943.327 230.009 942.676 232.562 943.15 236.013C943.454 238.219 943.352 240.517 942.722 242.741C942.373 243.976 942.846 244.776 944.151 245.365C947.955 247.084 948.064 247.454 947.039 251.353C946.427 253.684 949.883 256.516 952.582 255.85C953.581 255.603 954.525 255.134 955.522 254.876C959.616 253.819 962.146 256.067 961.642 260.278C961.631 260.37 961.586 260.459 961.572 260.551C960.836 265.6 960.858 265.563 965.234 268.071C966.745 268.937 968.941 269.592 968.999 271.536C969.064 273.73 966.942 274.974 965.175 275.61C960.677 277.228 957.213 279.052 958.046 284.962C958.561 288.61 955.371 291.584 954.772 295.239C954.437 297.278 952.004 297.293 950.298 297.525C948.952 297.708 948.327 298.308 947.852 299.454C945.801 304.398 943.045 304.757 939.493 300.29C938.767 301.693 938.108 302.996 937.422 304.284C936.765 305.516 936.08 306.734 935.423 307.93C940.955 312.023 940.841 314.723 935.067 318.484C935.908 320.801 938.646 322.967 936.758 325.625C934.645 328.599 931.601 326.454 928.957 326.162C928.335 328.253 927.943 330.303 927.112 332.157C926.323 333.915 925.327 336.12 922.992 335.853C920.598 335.579 920.347 333.284 920.163 331.234C919.929 331.381 919.718 331.438 919.637 331.574C915.772 337.999 914.258 338.363 907.81 334.388C905.835 333.17 903.869 331.937 901.598 330.524C901.278 334.22 900.293 337.024 896.53 337.727C895.913 337.842 895.839 338.52 895.676 339.076C894.909 341.688 893.259 343.329 890.433 343.386C887.616 343.443 886.654 341.333 885.817 339.156C885.685 338.814 885.568 338.467 885.244 337.564C881.353 341.024 877.352 346.109 873.642 338.119C872.143 338.266 871.684 339.33 870.944 339.997C868.119 342.543 865.843 342.416 863.621 339.375C861.966 337.108 860.471 334.724 858.833 332.288C856.132 333.483 853.719 334.963 850.783 335.058C847.405 335.167 847.054 334.978 845.016 329.868C842.925 331.699 841.032 333.619 838.75 335.04C835.456 337.092 834.566 336.912 832.342 333.654C831.031 331.733 830.049 329.551 828.065 327.948C826.935 328.897 825.926 329.874 824.793 330.671C822.227 332.477 820.267 331.733 819.548 328.749C819.35 327.927 819.152 327.098 819.054 326.26C818.603 322.415 818.615 322.409 814.922 323.094C813.537 323.351 812.155 323.62 810.776 323.906C807.76 324.53 807.201 324.119 807.118 321.151C807.097 320.397 806.958 319.601 807.146 318.897C807.827 316.338 807.522 314.344 805.105 312.644C803.702 311.657 803.556 309.764 804.117 307.96C804.681 306.145 804.848 304.552 802.789 303.169C800.841 301.861 800.939 299.665 802.861 298.183C805.144 296.422 805.972 294.706 804.294 292.019C803.043 290.014 803.865 288.423 806.043 287.549C807.003 287.164 807.942 286.724 808.911 286.362C811.247 285.489 813.06 284.524 812.32 281.317C811.895 279.473 813.119 277.889 815.202 277.417C816.464 277.132 817.733 276.88 819.078 276.597C819.102 275.387 818.438 275.212 817.458 275.241C808.489 275.507 800.061 277.736 791.912 281.532C781.626 286.324 771.708 291.675 762.878 298.844C751.256 308.279 740.958 318.913 733.297 331.923C730.873 336.038 730.247 340.605 729.589 345.129C728.398 353.326 727.874 361.604 728.389 369.88C728.955 378.963 729.926 388.02 730.545 397.101C731.289 408.019 734.315 418.512 736.322 429.193C737.187 433.795 739.525 437.803 742.455 441.456C751.072 452.197 755.198 465.042 759.32 477.861C759.785 479.307 760.253 479.73 761.682 479.95C776.431 482.221 791.267 483.792 806.079 485.551C814.95 486.604 823.662 488.469 832.387 490.281C834.193 490.656 835.899 490.724 837.661 490.18C842.416 488.709 847.037 489.261 851.713 490.817C861.164 493.962 870.727 496.689 880.806 496.888C881.145 496.895 881.481 497.082 882.033 497.251C881.582 497.502 881.356 497.736 881.129 497.738C874.166 497.8 867.231 498.419 860.251 498.322C751.663 496.811 643.067 497.998 534.434 497.13C537.618 496.761 540.835 496.568 543.98 495.987C552.13 494.484 559.847 491.35 567.875 489.407C575.948 487.452 584.179 486.7 592.484 487.712C593.939 487.889 595.277 487.368 596.933 487.395ZM737.678 288.036C738.723 286.826 739.863 285.685 740.797 284.396C748.253 274.114 755.361 263.561 763.194 253.577C769.906 245.022 777.968 237.798 788.406 233.791C790.687 232.916 792.915 231.903 795.173 230.969C797.929 229.83 796.355 227.97 796.039 226.248C795.704 224.423 794.89 224.095 793.083 224.443C790.084 225.019 787.561 222.559 787.91 219.747C788.529 214.77 788.254 214.487 783.311 215.076C782.66 215.153 782.012 215.265 781.371 215.4C766.562 218.516 753.779 226.064 740.965 233.641C733.407 238.11 729.952 244.363 729.242 253.131C728.558 261.584 727.134 270.095 722.92 277.788C721.74 279.943 721.445 282.389 721.506 284.903C721.595 288.598 722.738 292.095 723.226 295.708C723.377 296.831 723.231 298.145 724.447 298.653C725.646 299.154 726.604 298.207 727.43 297.491C730.843 294.533 734.329 291.652 737.678 288.036ZM655.314 246.112C654.302 246.373 652.988 245.751 652.3 247.16C652.917 248.637 654.326 249.324 655.458 250.253C658.869 253.056 661.973 256.162 662.612 260.717C663.342 265.917 663.831 271.172 662.868 276.427C662.584 277.976 662.743 279.411 664.128 280.497C669.152 284.44 674.076 288.516 679.197 292.328C682.249 294.599 683.212 293.89 683.902 290.203C684.687 286.008 684.387 281.777 684.748 277.572C685.286 271.28 684.684 264.981 679.38 260.519C673.078 255.216 666.957 249.632 659.443 245.954C658.08 245.286 656.952 245.385 655.314 246.112ZM763.05 275.268C763.787 276.732 764.783 275.946 765.669 275.521C770.504 273.202 775.342 270.889 780.144 268.502C784.412 266.381 788.432 264.12 791.907 260.54C796.063 256.258 801.242 252.973 805.958 249.23C809.685 246.272 813.382 243.276 817.025 240.352C815.097 236.237 815.087 236.168 812.483 236.553C802.666 238.004 793.477 241.266 785.333 246.951C778.366 251.816 773.572 258.815 768.488 265.463C766.267 268.367 764.127 271.365 763.05 275.268ZM690.07 247.227C691.398 241.816 690.086 236.393 690.134 230.976C690.142 229.983 689.572 229.197 688.99 228.454C684.025 222.115 678.039 217.139 670.398 214.286C668.798 213.688 667.74 213.984 666.719 215.266C665.616 216.653 666.193 217.72 667.229 218.705C668.757 220.156 668.369 221.624 667.989 223.539C667.194 227.548 666.475 231.753 670.094 235.134C675.313 240.01 680.569 244.842 686.173 249.272C688.517 251.125 689.393 250.691 690.07 247.227ZM700.904 197.703C698.253 191.94 694.55 186.851 690.666 181.893C689.884 180.895 689.161 178.952 687.499 179.944C685.981 180.851 683.365 181.544 684.757 184.474C685.057 185.107 685.214 186.067 684.952 186.664C683.666 189.6 685.25 191.927 686.41 194.333C687.184 195.938 688.094 197.479 688.986 199.024C693.263 206.433 697.653 213.765 703.945 219.714C704.872 220.591 705.79 221.647 707.838 221.06C706.585 213.109 704.092 205.532 700.904 197.703ZM746.168 201.654C745.962 200.651 745.424 199.755 744.407 199.679C740.099 199.357 738.463 196.69 738.029 192.805C737.931 191.929 737.417 191.186 736.479 190.988C735.497 190.782 734.515 191.092 733.913 191.816C733.052 192.851 733.338 194.148 733.701 195.317C734.482 197.831 734.982 200.347 735.217 203.005C735.613 207.474 735.23 211.981 736.084 216.422C736.809 220.193 737.349 220.57 740.732 218.43C746.303 214.905 752.009 211.653 758.012 208.92C760.235 207.908 762.421 206.811 764.621 205.748C765.697 205.228 767.189 204.883 766.223 203.178C765.274 201.504 764.074 202.157 762.927 203.02C762.026 203.697 761.18 204.476 760.204 205.021C757.994 206.255 755.742 206.78 753.913 204.38C752.92 203.078 751.934 203.453 750.709 203.957C748.695 204.785 746.993 204.542 746.168 201.654ZM693.036 168.555C692.625 169.329 693.12 169.777 693.635 170.218C696.412 172.597 699.183 174.985 701.973 177.35C702.591 177.873 703.154 178.633 704.266 178.178C705.139 176.866 705.056 175.297 704.604 173.919C702.47 167.415 700.204 160.954 697.953 154.489C697.585 153.432 696.898 152.506 695.649 153.312C693.724 154.555 691.443 155.367 690.139 157.366C690.58 158.592 691.529 159.029 692.434 159.528C697.497 162.322 697.621 162.946 694.013 167.415C693.778 167.707 693.506 167.969 693.036 168.555ZM645.772 264.24C647.016 268.391 647.94 272.748 652.397 275.029C656.192 267.133 649.715 251.95 642.716 252.157C643.719 256.056 644.712 259.919 645.772 264.24ZM810.125 260.619C814.244 259.656 818.576 259.406 822.596 257.177C820.881 254.977 820.57 252.716 821.014 249.423C815.309 252.507 810.883 255.827 806.945 259.789C807.87 261.206 808.77 261.073 810.125 260.619ZM630.523 264.859C629.053 265.017 627.735 263.723 626.213 264.323C626.059 269.164 629.499 272.047 635.137 271.509C633.822 269.131 634.492 265.825 630.523 264.859Z" fill="#1AA73C"/>
<path fill-rule="evenodd" clip-rule="evenodd" d="M1004 259H1356C1400.18 259 1436 294.817 1436 339V911C1436 955.183 1400.18 991 1356 991H90C45.8172 991 10 955.183 10 911V339C10 294.817 45.8172 259 90 259H423V249H90C40.2944 249 0 289.294 0 339V911C0 960.706 40.2944 1001 90 1001H1356C1405.71 1001 1446 960.706 1446 911V339C1446 289.294 1405.71 249 1356 249H1004V259Z" fill="#1AA73C"/>
<path d="M239.5 768.45C229.7 768.45 221.3 767.167 214.3 764.6C211.5 763.667 211.033 762.033 212.9 759.7C213.833 758.767 215 757.95 216.4 757.25C217.8 756.783 219.317 756.9 220.95 757.6C226.55 759.933 233.9 761.1 243 761.1C265.167 761.1 291.067 753.75 320.7 739.05C340.3 729.25 358.733 717.233 376 703C393.5 688.767 408.433 673.133 420.8 656.1C433.167 639.067 441.567 621.683 446 603.95C447.4 598.35 448.1 593.333 448.1 588.9C448.1 575.133 442.5 564.983 431.3 558.45C420.333 551.683 405.05 548.3 385.45 548.3C383.817 548.3 381.717 548.417 379.15 548.65C376.817 548.65 373.9 548.767 370.4 549C363.633 549.467 356.517 550.517 349.05 552.15C341.817 553.55 334.35 555.417 326.65 557.75C311.25 562.417 297.6 568.833 285.7 577C273.8 584.933 266.217 594.033 262.95 604.3C262.25 606.4 261.9 608.15 261.9 609.55C261.9 612.117 262.717 614.1 264.35 615.5C265.983 616.9 268.433 618.3 271.7 619.7C273.1 620.4 273.8 621.333 273.8 622.5C273.8 623.9 273.333 625.067 272.4 626C269.6 629.267 266.567 630.2 263.3 628.8C262.6 628.567 260.733 627.867 257.7 626.7C254.667 625.3 252.333 623.667 250.7 621.8C248.6 619.233 247.55 616.433 247.55 613.4C247.55 612 248.133 609.2 249.3 605C253.267 592.867 262.25 582.017 276.25 572.45C285.583 565.917 295.85 560.317 307.05 555.65C318.483 550.75 329.917 546.9 341.35 544.1C353.017 541.067 363.867 539.317 373.9 538.85C377.867 538.617 381.25 538.5 384.05 538.5C387.083 538.267 389.417 538.15 391.05 538.15C440.75 538.15 465.6 553.667 465.6 584.7C465.6 587.267 465.367 590.3 464.9 593.8C464.433 597.067 463.733 600.683 462.8 604.65C455.333 633.35 438.767 660.183 413.1 685.15C400.033 697.75 385.917 709.183 370.75 719.45C355.817 729.717 340.533 738.467 324.9 745.7C309.5 752.933 294.45 758.533 279.75 762.5C265.283 766.467 251.867 768.45 239.5 768.45ZM279.05 747.45C272.983 746.283 268.667 744.183 266.1 741.15C263.767 738.117 262.6 733.683 262.6 727.85C262.6 726.683 262.717 724.933 262.95 722.6C263.183 720.267 263.533 717.233 264 713.5C265.167 705.333 268.2 695.767 273.1 684.8C278.233 673.833 284.533 662.283 292 650.15C299.467 638.017 307.4 626.117 315.8 614.45C324.433 602.55 332.95 591.933 341.35 582.6C341.583 582.367 341.583 582.017 341.35 581.55C341.35 581.083 341 580.733 340.3 580.5L339.6 579.8C338.9 578.867 338.783 578.167 339.25 577.7L347.65 567.9C349.517 565.567 351.033 563.7 352.2 562.3C353.6 560.667 354.65 559.617 355.35 559.15C356.517 557.983 358.383 557.4 360.95 557.4C363.983 557.4 366.783 558.217 369.35 559.85C372.15 561.483 373.55 563.117 373.55 564.75C373.55 565.917 373.083 566.85 372.15 567.55C367.25 571.983 361.767 577.583 355.7 584.35C349.633 590.883 342.983 598.817 335.75 608.15C325.95 620.517 316.85 633 308.45 645.6C300.05 658.2 293.05 669.867 287.45 680.6C282.083 691.1 278.933 699.617 278 706.15L276.6 715.25C275.9 718.75 275.55 722.017 275.55 725.05C275.55 729.95 277.883 732.983 282.55 734.15C284.883 734.383 286.05 736.017 286.05 739.05C286.05 741.383 285.35 743.483 283.95 745.35C282.55 747.217 280.917 747.917 279.05 747.45Z" fill="#1AA73C"/>
<path d="M473.817 747.45C473.35 747.45 472.884 747.333 472.417 747.1C471.95 747.1 471.484 746.983 471.017 746.75C467.75 745.117 465.65 742.783 464.717 739.75C463.783 736.717 463.55 732.867 464.017 728.2C464.484 726.333 464.95 723.067 465.417 718.4C466.117 713.733 466.933 710 467.867 707.2L450.017 724.35L440.217 733.8C433.45 740.567 427.85 743.95 423.417 743.95C421.55 743.95 420.033 743.25 418.867 741.85C416.767 739.283 415.717 736.133 415.717 732.4C415.717 727.5 417 722.25 419.567 716.65C422.133 711.05 425.167 705.683 428.667 700.55C432.167 695.183 435.317 690.75 438.117 687.25C445.117 678.617 451.883 671.85 458.417 666.95C465.183 662.05 472.184 659.6 479.417 659.6C483.384 659.6 487.233 660.3 490.967 661.7C494.934 663.1 498.55 665.433 501.817 668.7L502.167 669.05C502.167 669.75 501.583 670.45 500.417 671.15C499.95 671.617 499.483 671.967 499.017 672.2C498.783 672.433 498.55 672.667 498.317 672.9C495.517 675.7 492.367 680.367 488.867 686.9C485.367 693.433 482.333 700.317 479.767 707.55C477.2 714.55 475.917 720.617 475.917 725.75C475.917 730.417 477.083 733.567 479.417 735.2C480.583 735.9 481.867 736.25 483.267 736.25C486.3 736.25 490.5 734.383 495.867 730.65C496.1 730.417 496.567 730.067 497.267 729.6C498.2 728.9 499.483 727.967 501.117 726.8C502.983 725.4 504.5 724.7 505.667 724.7C506.833 724.7 507.417 725.167 507.417 726.1C507.417 727.5 506.483 729.133 504.617 731C503.217 732.167 501.583 733.45 499.717 734.85C498.083 736.25 496.1 737.65 493.767 739.05C490.267 741.617 486.65 743.6 482.917 745C479.184 746.633 476.15 747.45 473.817 747.45ZM434.267 725.05C439.167 725.05 448.267 717.817 461.567 703.35C465.067 699.383 468.217 695.65 471.017 692.15C473.817 688.417 476.383 684.8 478.717 681.3C482.917 674.533 484.317 669.867 482.917 667.3C482.217 665.9 480.817 665.2 478.717 665.2C476.15 665.2 472.65 666.6 468.217 669.4C463.783 671.967 459.234 675.35 454.567 679.55C450.133 683.75 446.05 687.95 442.317 692.15C439.75 695.417 437.183 699.967 434.617 705.8C432.05 711.633 430.767 716.417 430.767 720.15C430.767 723.417 431.934 725.05 434.267 725.05Z" fill="#1AA73C"/>
<path d="M520.714 745.35C517.681 745.35 516.164 742.667 516.164 737.3C516.164 732.867 517.214 728.55 519.314 724.35C524.681 714.083 529.581 703.933 534.014 693.9C537.047 687.833 539.847 682 542.414 676.4C545.214 670.8 547.781 665.667 550.114 661C551.514 659.6 552.914 658.9 554.314 658.9C557.347 658.9 558.281 660.3 557.114 663.1C556.647 664.733 555.947 666.717 555.014 669.05C554.314 671.15 553.381 673.717 552.214 676.75C548.481 686.55 546.264 693.433 545.564 697.4C552.097 691.567 558.747 686.2 565.514 681.3C572.514 676.167 579.047 671.967 585.114 668.7C591.181 665.433 596.314 663.8 600.514 663.8C604.247 663.8 606.114 665.317 606.114 668.35C606.114 670.917 604.947 673.717 602.614 676.75C600.281 679.55 597.947 680.95 595.614 680.95C594.447 680.95 593.514 680.6 592.814 679.9C592.114 679.667 590.714 679.55 588.614 679.55C581.147 679.55 573.331 683.167 565.164 690.4C556.531 697.633 548.714 706.383 541.714 716.65C534.714 726.683 529.581 735.433 526.314 742.9C524.681 744.533 522.814 745.35 520.714 745.35Z" fill="#1AA73C"/>
<path d="M645.057 747.45C644.59 747.45 644.124 747.333 643.657 747.1C643.19 747.1 642.724 746.983 642.257 746.75C638.99 745.117 636.89 742.783 635.957 739.75C635.024 736.717 634.79 732.867 635.257 728.2C635.724 726.333 636.19 723.067 636.657 718.4C637.357 713.733 638.174 710 639.107 707.2L621.257 724.35L611.457 733.8C604.69 740.567 599.09 743.95 594.657 743.95C592.79 743.95 591.274 743.25 590.107 741.85C588.007 739.283 586.957 736.133 586.957 732.4C586.957 727.5 588.24 722.25 590.807 716.65C593.374 711.05 596.407 705.683 599.907 700.55C603.407 695.183 606.557 690.75 609.357 687.25C616.357 678.617 623.124 671.85 629.657 666.95C636.424 662.05 643.424 659.6 650.657 659.6C654.624 659.6 658.474 660.3 662.207 661.7C666.174 663.1 669.79 665.433 673.057 668.7L673.407 669.05C673.407 669.75 672.824 670.45 671.657 671.15C671.19 671.617 670.724 671.967 670.257 672.2C670.024 672.433 669.79 672.667 669.557 672.9C666.757 675.7 663.607 680.367 660.107 686.9C656.607 693.433 653.574 700.317 651.007 707.55C648.44 714.55 647.157 720.617 647.157 725.75C647.157 730.417 648.324 733.567 650.657 735.2C651.824 735.9 653.107 736.25 654.507 736.25C657.54 736.25 661.74 734.383 667.107 730.65C667.34 730.417 667.807 730.067 668.507 729.6C669.44 728.9 670.724 727.967 672.357 726.8C674.224 725.4 675.74 724.7 676.907 724.7C678.074 724.7 678.657 725.167 678.657 726.1C678.657 727.5 677.724 729.133 675.857 731C674.457 732.167 672.824 733.45 670.957 734.85C669.324 736.25 667.34 737.65 665.007 739.05C661.507 741.617 657.89 743.6 654.157 745C650.424 746.633 647.39 747.45 645.057 747.45ZM605.507 725.05C610.407 725.05 619.507 717.817 632.807 703.35C636.307 699.383 639.457 695.65 642.257 692.15C645.057 688.417 647.624 684.8 649.957 681.3C654.157 674.533 655.557 669.867 654.157 667.3C653.457 665.9 652.057 665.2 649.957 665.2C647.39 665.2 643.89 666.6 639.457 669.4C635.024 671.967 630.474 675.35 625.807 679.55C621.374 683.75 617.29 687.95 613.557 692.15C610.99 695.417 608.424 699.967 605.857 705.8C603.29 711.633 602.007 716.417 602.007 720.15C602.007 723.417 603.174 725.05 605.507 725.05Z" fill="#1AA73C"/>
<path d="M631.18 787.7C630.247 787.7 629.663 787 629.43 785.6C629.197 784.433 629.313 783.383 629.78 782.45C633.747 774.283 639.58 765.183 647.28 755.15C654.98 745.117 663.73 734.85 673.53 724.35C683.563 713.85 693.713 703.933 703.98 694.6L704.33 683.75C704.33 678.617 703.63 674.183 702.23 670.45C700.363 671.383 698.497 671.85 696.63 671.85C694.763 671.85 693.83 671.033 693.83 669.4C693.83 666.367 695.697 663.8 699.43 661.7C701.297 660.533 703.163 659.95 705.03 659.95C709.463 659.95 712.263 662.867 713.43 668.7C714.83 674.533 715.413 680.483 715.18 686.55L729.53 674.65C734.663 670.917 739.33 666.25 743.53 660.65C748.897 653.65 754.497 650.15 760.33 650.15C763.597 650.15 765.23 651.317 765.23 653.65C765.23 655.283 764.18 656.8 762.08 658.2C742.013 672.667 726.147 684.683 714.48 694.25C713.78 700.55 713.43 706.967 713.43 713.5C713.43 720.733 715.53 724.35 719.73 724.35C722.297 724.35 725.097 723.3 728.13 721.2C731.863 718.633 735.13 716.183 737.93 713.85C740.73 711.517 742.947 709.3 744.58 707.2C747.147 704.633 748.897 703.35 749.83 703.35C750.763 703.35 751.23 703.933 751.23 705.1C751.23 706.967 749.947 709.183 747.38 711.75C746.68 712.45 745.98 713.033 745.28 713.5C744.813 713.967 744.23 714.55 743.53 715.25C742.83 715.717 742.247 716.183 741.78 716.65C739.68 718.283 737.697 719.8 735.83 721.2C734.197 722.6 732.797 723.883 731.63 725.05C719.963 736.017 711.447 741.5 706.08 741.5C704.213 741.5 702.813 741.033 701.88 740.1C700.48 738.7 699.78 735.9 699.78 731.7C699.78 728.2 700.13 724.467 700.83 720.5C701.53 716.3 702.23 712.683 702.93 709.65C703.63 706.383 703.98 704.517 703.98 704.05C686.713 718.983 672.247 733.1 660.58 746.4C648.913 759.7 640.047 772.417 633.98 784.55C633.047 786.65 632.113 787.7 631.18 787.7Z" fill="#1AA73C"/>
<path d="M759.37 770.55C758.204 770.55 757.62 769.5 757.62 767.4C757.62 766.933 757.62 766.233 757.62 765.3C757.854 764.6 758.087 763.783 758.32 762.85L773.37 725.05L791.22 680.95C788.42 680.717 784.337 680.833 778.97 681.3C773.604 681.533 769.054 682 765.32 682.7C763.92 682.933 762.754 683.167 761.82 683.4C761.12 683.4 760.537 683.4 760.07 683.4C758.204 683.4 756.92 682.583 756.22 680.95C756.454 679.55 757.737 678.267 760.07 677.1C761.237 676.633 762.637 676.283 764.27 676.05C765.904 675.583 767.887 675.117 770.22 674.65C772.787 674.183 775.004 673.833 776.87 673.6C778.97 673.367 780.487 673.133 781.42 672.9C782.587 672.667 783.754 672.433 784.92 672.2C786.087 671.967 787.487 671.733 789.12 671.5C790.52 671.267 792.037 671.033 793.67 670.8C795.304 670.567 797.054 670.217 798.92 669.75C800.787 667.183 803.587 662.633 807.32 656.1C811.054 649.567 815.837 640.933 821.67 630.2C826.337 621.567 830.07 614.8 832.87 609.9C835.904 604.767 838.004 601.383 839.17 599.75C841.27 596.95 843.72 595.55 846.52 595.55C847.92 595.55 848.62 596.133 848.62 597.3C848.62 597.533 848.037 599.05 846.87 601.85C845.47 604.183 843.137 608.5 839.87 614.8C836.604 621.1 833.104 627.983 829.37 635.45C825.637 642.917 822.254 649.917 819.22 656.45C816.187 662.983 814.087 667.767 812.92 670.8C814.087 670.567 815.37 670.45 816.77 670.45C818.404 670.45 820.387 670.45 822.72 670.45C825.287 670.45 827.62 670.567 829.72 670.8C832.054 670.8 834.037 670.917 835.67 671.15C838.937 671.85 840.57 672.783 840.57 673.95C840.57 674.417 839.52 675.233 837.42 676.4C836.254 676.867 834.037 677.333 830.77 677.8C827.504 678.267 823.187 678.733 817.82 679.2C816.42 679.2 814.904 679.317 813.27 679.55C811.637 679.55 809.887 679.667 808.02 679.9C801.02 691.333 791.454 710.35 779.32 736.95C774.887 745.817 771.504 752.7 769.17 757.6C766.837 762.5 765.437 765.417 764.97 766.35C762.87 769.15 761.004 770.55 759.37 770.55Z" fill="#1AA73C"/>
<path d="M817.522 762.85C817.289 762.85 817.056 762.85 816.822 762.85C816.356 763.083 815.889 763.2 815.422 763.2C812.856 763.2 811.572 761.917 811.572 759.35C811.572 757.717 812.272 755.383 813.672 752.35C814.839 749.55 816.239 746.633 817.872 743.6C819.506 740.8 820.556 738.933 821.022 738C823.589 733.567 825.572 729.95 826.972 727.15C828.606 724.35 829.656 722.25 830.122 720.85L838.522 700.9L834.672 698.45C833.506 697.75 832.572 697.05 831.872 696.35C831.406 695.65 831.056 695.183 830.822 694.95L830.122 693.55C830.122 692.15 831.872 690.983 835.372 690.05C836.772 689.117 840.272 687.95 845.872 686.55L858.122 661L864.422 645.25C873.756 621.917 882.622 602.783 891.022 587.85C899.656 572.683 909.689 562.417 921.122 557.05H921.472C922.406 557.05 923.689 557.517 925.322 558.45C926.956 559.383 928.006 560.55 928.472 561.95C928.706 562.883 928.822 563.933 928.822 565.1C929.056 566.033 929.172 567.083 929.172 568.25C929.172 573.15 928.006 579.217 925.672 586.45C923.572 593.45 919.956 600.917 914.822 608.85C910.156 615.85 904.206 623.55 896.972 631.95C889.972 640.117 881.689 648.983 872.122 658.55C867.689 666.483 863.489 674.533 859.522 682.7C865.822 680.833 873.172 678.033 881.572 674.3C885.306 673.133 889.272 671.733 893.472 670.1C897.672 668.467 902.106 666.483 906.772 664.15C907.939 663.683 909.222 663.1 910.622 662.4C912.022 661.7 913.422 661 914.822 660.3L926.722 655.05L930.572 654.7C931.739 654.7 931.972 655.167 931.272 656.1C930.572 657.5 927.889 659.717 923.222 662.75C918.556 665.783 913.772 668.583 908.872 671.15L889.272 679.9C884.839 681.767 881.339 683.283 878.772 684.45C876.206 685.617 874.456 686.433 873.522 686.9C871.889 689 870.372 691.1 868.972 693.2C867.806 695.067 866.756 696.933 865.822 698.8C866.989 703.933 873.289 710.933 884.722 719.8C889.389 723.533 892.656 726.217 894.522 727.85C896.389 729.483 897.089 730.067 896.622 729.6C900.122 732.167 902.106 734.267 902.572 735.9L902.922 737.3V737.65C902.922 738.817 901.872 738.817 899.772 737.65C897.672 737.183 894.872 736.017 891.372 734.15L878.422 727.5C873.056 724.7 868.739 722.367 865.472 720.5C862.439 718.633 859.639 716.767 857.072 714.9C854.506 713.033 851.239 710.7 847.272 707.9C842.139 719.333 837.589 729.483 833.622 738.35C833.389 739.05 833.156 739.517 832.922 739.75C832.922 740.217 832.922 740.567 832.922 740.8C832.922 741.5 833.622 742.083 835.022 742.55C836.422 742.783 837.239 743.25 837.472 743.95C837.706 744.883 837.822 745.583 837.822 746.05C838.056 746.75 838.172 747.217 838.172 747.45C838.172 751.417 835.956 754.8 831.522 757.6C827.322 760.4 822.656 762.15 817.522 762.85ZM873.872 644.2C874.572 644.667 876.322 643.617 879.122 641.05C881.922 638.25 885.072 634.75 888.572 630.55C892.306 626.117 895.922 621.567 899.422 616.9C903.156 612 906.072 607.683 908.172 603.95C911.672 597.883 914.589 592.05 916.922 586.45C919.256 580.617 920.422 576.183 920.422 573.15C920.422 570.35 919.372 568.95 917.272 568.95C914.706 568.95 911.439 571.283 907.472 575.95C903.506 580.617 899.539 586.333 895.572 593.1C891.839 599.867 888.572 606.283 885.772 612.35C884.139 616.083 882.389 620.283 880.522 624.95C878.889 629.617 877.489 633.817 876.322 637.55C875.156 641.05 874.339 643.267 873.872 644.2Z" fill="#1AA73C"/>
<path d="M936.123 741.85C931.223 741.85 926.906 740.567 923.173 738C917.106 733.333 914.073 726.333 914.073 717C914.073 707.667 917.34 697.75 923.873 687.25C930.406 676.75 940.323 667.067 953.623 658.2C955.956 656.567 959.106 655.75 963.073 655.75C968.206 655.75 972.756 657.15 976.723 659.95C980.923 662.75 982.556 666.367 981.623 670.8C979.99 678.033 976.373 684.45 970.773 690.05C965.406 695.65 958.99 700.667 951.523 705.1C944.29 709.3 936.823 713.383 929.123 717.35C928.89 718.05 928.656 718.75 928.423 719.45C928.423 720.15 928.423 720.85 928.423 721.55C928.423 724.817 929.473 727.733 931.573 730.3C933.906 732.633 937.056 733.8 941.023 733.8C944.056 733.8 946.623 733.333 948.723 732.4C952.456 731 955.49 729.717 957.823 728.55C960.39 727.383 963.306 725.633 966.573 723.3C969.84 720.967 974.273 717.467 979.873 712.8C982.44 710.933 983.956 710 984.423 710C985.823 710 986.29 711.05 985.823 713.15C983.49 716.883 979.406 720.967 973.573 725.4C967.973 729.833 961.673 733.683 954.673 736.95C947.906 740.217 941.723 741.85 936.123 741.85ZM931.223 707.9C933.09 707.9 936.94 706.033 942.773 702.3C948.606 698.567 954.09 694.483 959.223 690.05C968.09 681.883 972.523 675.583 972.523 671.15C972.523 669.983 972.173 668.933 971.473 668C970.773 666.833 969.723 666.25 968.323 666.25C963.89 666.25 956.423 671.5 945.923 682C938.69 689 933.79 697.633 931.223 707.9Z" fill="#1AA73C"/>
<path d="M987.308 743.6C983.108 743.6 981.008 741.967 981.008 738.7C981.008 736.6 981.708 733.917 983.108 730.65C984.741 727.383 986.374 724.233 988.008 721.2C992.441 713.267 996.524 705.567 1000.26 698.1C1003.99 690.633 1007.61 682.7 1011.11 674.3C1012.74 670.567 1015.19 668.7 1018.46 668.7C1021.96 668.7 1023.01 670.8 1021.61 675C1020.21 678.5 1018.81 681.65 1017.41 684.45C1010.87 697.75 1007.61 706.733 1007.61 711.4C1007.61 713.5 1008.31 714.783 1009.71 715.25C1012.97 712.683 1015.42 710.817 1017.06 709.65C1018.69 708.25 1019.62 707.433 1019.86 707.2C1023.12 704.633 1026.74 701.717 1030.71 698.45C1034.91 694.95 1039.46 690.983 1044.36 686.55C1052.06 679.55 1058.47 676.05 1063.61 676.05C1069.91 676.05 1072.59 681.767 1071.66 693.2C1071.42 697.633 1071.42 701.95 1071.66 706.15C1071.89 707.083 1072.01 708.483 1072.01 710.35C1072.01 711.983 1072.01 713.967 1072.01 716.3C1072.01 718.633 1073.41 719.8 1076.21 719.8C1079.47 719.8 1082.51 718.867 1085.31 717L1093.01 711.75L1100.71 706.85C1101.17 706.617 1101.99 706.5 1103.16 706.5C1104.56 706.5 1104.56 707.55 1103.16 709.65C1088.46 727.85 1076.32 736.95 1066.76 736.95C1064.89 736.95 1063.02 736.6 1061.16 735.9C1059.52 735.2 1058.36 733.217 1057.66 729.95C1056.96 726.45 1056.49 722.717 1056.26 718.75C1056.26 714.783 1056.26 711.75 1056.26 709.65L1056.61 698.1C1056.61 693.2 1055.32 690.75 1052.76 690.75C1046.69 690.75 1031.76 703.233 1007.96 728.2C1006.09 730.533 1003.17 733.683 999.208 737.65C995.241 741.617 991.275 743.6 987.308 743.6Z" fill="#1AA73C"/>
<path d="M1107.32 770.55C1106.15 770.55 1105.57 769.5 1105.57 767.4C1105.57 766.933 1105.57 766.233 1105.57 765.3C1105.8 764.6 1106.04 763.783 1106.27 762.85L1121.32 725.05L1139.17 680.95C1136.37 680.717 1132.29 680.833 1126.92 681.3C1121.55 681.533 1117 682 1113.27 682.7C1111.87 682.933 1110.7 683.167 1109.77 683.4C1109.07 683.4 1108.49 683.4 1108.02 683.4C1106.15 683.4 1104.87 682.583 1104.17 680.95C1104.4 679.55 1105.69 678.267 1108.02 677.1C1109.19 676.633 1110.59 676.283 1112.22 676.05C1113.85 675.583 1115.84 675.117 1118.17 674.65C1120.74 674.183 1122.95 673.833 1124.82 673.6C1126.92 673.367 1128.44 673.133 1129.37 672.9C1130.54 672.667 1131.7 672.433 1132.87 672.2C1134.04 671.967 1135.44 671.733 1137.07 671.5C1138.47 671.267 1139.99 671.033 1141.62 670.8C1143.25 670.567 1145 670.217 1146.87 669.75C1148.74 667.183 1151.54 662.633 1155.27 656.1C1159 649.567 1163.79 640.933 1169.62 630.2C1174.29 621.567 1178.02 614.8 1180.82 609.9C1183.85 604.767 1185.95 601.383 1187.12 599.75C1189.22 596.95 1191.67 595.55 1194.47 595.55C1195.87 595.55 1196.57 596.133 1196.57 597.3C1196.57 597.533 1195.99 599.05 1194.82 601.85C1193.42 604.183 1191.09 608.5 1187.82 614.8C1184.55 621.1 1181.05 627.983 1177.32 635.45C1173.59 642.917 1170.2 649.917 1167.17 656.45C1164.14 662.983 1162.04 667.767 1160.87 670.8C1162.04 670.567 1163.32 670.45 1164.72 670.45C1166.35 670.45 1168.34 670.45 1170.67 670.45C1173.24 670.45 1175.57 670.567 1177.67 670.8C1180 670.8 1181.99 670.917 1183.62 671.15C1186.89 671.85 1188.52 672.783 1188.52 673.95C1188.52 674.417 1187.47 675.233 1185.37 676.4C1184.2 676.867 1181.99 677.333 1178.72 677.8C1175.45 678.267 1171.14 678.733 1165.77 679.2C1164.37 679.2 1162.85 679.317 1161.22 679.55C1159.59 679.55 1157.84 679.667 1155.97 679.9C1148.97 691.333 1139.4 710.35 1127.27 736.95C1122.84 745.817 1119.45 752.7 1117.12 757.6C1114.79 762.5 1113.39 765.417 1112.92 766.35C1110.82 769.15 1108.95 770.55 1107.32 770.55Z" fill="#1AA73C"/>
<path d="M587.32 891.4H595.72C596.92 891.4 597.52 890.8 597.52 889.6V816.4C597.52 815.2 596.92 814.6 595.72 814.6H587.32C586.12 814.6 585.52 814 585.52 812.8C585.52 811.6 586.12 811 587.32 811H600.52C601.96 811 602.96 811.6 603.52 812.8L637.12 887.2C637.92 888.8 638.72 888.8 639.52 887.2L673.12 812.8C673.68 811.6 674.68 811 676.12 811H689.32C690.52 811 691.12 811.6 691.12 812.8C691.12 814 690.52 814.6 689.32 814.6H680.92C679.72 814.6 679.12 815.2 679.12 816.4V889.6C679.12 890.8 679.72 891.4 680.92 891.4H689.32C690.52 891.4 691.12 892 691.12 893.2C691.12 894.4 690.52 895 689.32 895H666.52C665.32 895 664.72 894.4 664.72 893.2C664.72 892 665.32 891.4 666.52 891.4H673.72C674.92 891.4 675.52 890.8 675.52 889.6V819.4C675.52 818.6 675.36 818.28 675.04 818.44C674.88 818.44 674.72 818.56 674.56 818.8L640.96 893.2C640.32 894.4 639.44 895 638.32 895C637.2 895 636.32 894.4 635.68 893.2L602.08 818.8C601.76 818.32 601.52 818.2 601.36 818.44C601.2 818.68 601.12 819 601.12 819.4V889.6C601.12 890.8 601.72 891.4 602.92 891.4H610.12C611.32 891.4 611.92 892 611.92 893.2C611.92 894.4 611.32 895 610.12 895H587.32C586.12 895 585.52 894.4 585.52 893.2C585.52 892 586.12 891.4 587.32 891.4Z" fill="#1AA73C"/>
<path d="M740.762 817.6C740.602 817.12 740.362 816.88 740.042 816.88C739.722 816.88 739.482 817.12 739.322 817.6L722.882 860.32C722.242 861.52 722.682 862.12 724.202 862.12H755.882C757.322 862.12 757.762 861.52 757.202 860.32L740.762 817.6ZM759.962 867.4C759.482 866.28 758.522 865.72 757.082 865.72H723.002C721.562 865.72 720.602 866.28 720.122 867.4L711.602 889.6C710.962 890.8 711.362 891.4 712.802 891.4H720.002C721.202 891.4 721.802 892 721.802 893.2C721.802 894.4 721.202 895 720.002 895H697.202C696.002 895 695.402 894.4 695.402 893.2C695.402 892 696.002 891.4 697.202 891.4H705.002C705.962 891.4 706.762 890.8 707.402 889.6L737.402 811.6C737.722 810.4 738.602 809.8 740.042 809.8C741.482 809.8 742.362 810.4 742.682 811.6L772.682 889.6C773.242 890.8 774.042 891.4 775.082 891.4H782.882C784.082 891.4 784.682 892 784.682 893.2C784.682 894.4 784.082 895 782.882 895H760.082C758.882 895 758.282 894.4 758.282 893.2C758.282 892 758.882 891.4 760.082 891.4H767.282C768.642 891.4 769.042 890.8 768.482 889.6L759.962 867.4Z" fill="#1AA73C"/>
<path d="M806.358 861.4C805.158 861.4 804.558 862 804.558 863.2V889.6C804.558 890.8 805.158 891.4 806.358 891.4H815.958C817.158 891.4 817.758 892 817.758 893.2C817.758 894.4 817.158 895 815.958 895H790.758C789.557 895 788.958 894.4 788.958 893.2C788.958 892 789.557 891.4 790.758 891.4H799.158C800.358 891.4 800.958 890.8 800.958 889.6V816.4C800.958 815.2 800.358 814.6 799.158 814.6H790.758C789.557 814.6 788.958 814 788.958 812.8C788.958 811.6 789.557 811 790.758 811H830.958C838.878 811 844.838 813.16 848.838 817.48C852.918 821.72 854.958 827.96 854.958 836.2C854.958 844.44 852.918 850.72 848.838 855.04C844.838 859.28 838.878 861.4 830.958 861.4H806.358ZM830.958 857.8C844.557 857.8 851.358 850.6 851.358 836.2C851.358 821.8 844.557 814.6 830.958 814.6H806.358C805.158 814.6 804.558 815.2 804.558 816.4V856C804.558 857.2 805.158 857.8 806.358 857.8H830.958Z" fill="#1AA73C"/>
</svg>
