<svg width="18" height="18" viewBox="0 0 18 18" fill="none" xmlns="http://www.w3.org/2000/svg">
<path fill-rule="evenodd" clip-rule="evenodd" d="M7.84006 9.25171L10.1995 9.26317C10.7796 10.2003 11.4921 9.82574 12.4071 9.7773C12.6086 9.76664 12.8378 9.78379 13.2003 9.85872L13.8646 9.99622C14.5811 10.0223 15.0015 10.0399 15.6944 9.83338C15.8517 9.78654 15.9817 9.76494 16.1058 9.77154C16.5128 9.7932 16.8087 10.0076 17.4953 10.0076L17.4496 10.3054C16.9206 10.2393 16.5977 10.199 16.0752 10.294C15.9169 10.3573 15.7915 10.414 15.67 10.3956C14.976 10.2902 14.3669 10.3362 13.7959 10.3513L13.0515 10.4314C12.425 10.4974 13.0299 10.5857 13.2691 10.6033L13.6928 10.5918C14.325 10.5285 14.792 10.4901 15.4223 10.5918C15.9477 10.7378 16.1562 10.7754 16.4835 10.7844C16.7745 10.7925 17.0426 10.7816 17.335 10.8094L17.2205 11.4164C16.8784 11.3792 16.615 11.3228 16.3494 11.2502C15.6238 11.0519 15.1447 10.8601 14.3686 10.901C15.3259 11.3025 15.7513 11.345 16.5333 12.1495L16.7852 12.4816L16.6249 12.8138L15.2047 12.5617C15.5325 12.8397 15.9389 13.2781 16.2584 13.5124L16.0293 13.8331C15.5402 13.4082 15.0387 13.0011 14.5518 12.5732L13.7157 12.7106C13.8382 12.9778 13.8626 13.0872 13.9219 13.375C14.2827 13.4451 15.6619 13.8245 15.9491 13.9935L15.4337 14.6233C14.9144 14.1586 14.6964 13.8992 14.0135 13.753L14.0594 14.7608L14.1051 15.5053L14.3227 15.7L13.9333 15.9978C13.7408 15.6127 13.5381 15.3273 13.3492 14.9212C13.0995 14.1971 12.9961 14.0948 12.5475 13.478L12.2497 13.1917C12.6482 14.2765 12.5887 15.158 13.1202 15.7344L13.4179 16.0894L13.5668 16.2727L13.3492 16.3872C13.1444 16.1588 12.9908 15.9714 12.8109 15.7229C12.9174 16.0661 12.9985 16.2019 13.1774 16.5132L12.8796 16.6736C12.6666 16.2572 12.5315 15.974 12.425 15.5077C12.3605 15.2249 12.3303 14.9576 12.2956 14.5661C12.1225 13.7484 12.0025 13.4661 11.5167 12.8138C11.0952 12.3396 10.9677 12.101 10.5307 11.8102C9.81614 11.3349 9.79072 10.8638 9.21454 10.2367C9.21454 11.227 9.34975 10.8314 9.71847 11.5997L9.83305 11.9433L10.0048 12.3097L10.2912 12.7221C11.0937 13.6674 11.885 14.1576 12.158 15.4137L12.2497 15.929L12.4329 16.4559L12.5818 16.8339L12.1695 17.0057C11.9698 16.6063 11.9123 16.4523 11.8259 16.0207C11.768 16.4334 11.7325 16.7494 11.7228 17.1661L11.4136 17.2691C11.4136 16.8081 11.4323 16.5181 11.5052 16.0665C11.4326 14.5661 11.1408 14.4017 10.1079 13.3062L9.83305 12.9741C9.76861 13.1089 9.56683 13.6736 9.3501 14.0932C9.18986 14.4034 8.99145 14.6138 8.98958 14.6201C8.94604 14.7709 9.07475 14.893 9.56958 15.1617C10.657 15.7627 10.2376 15.6484 10.6348 16.3987C11.0025 16.7358 11.1282 16.8229 11.2075 17.3379L10.818 17.4409C10.7733 17.0682 10.7325 17.0577 10.4744 16.7995C10.345 17.08 10.2567 17.2834 10.1651 17.5784L9.74142 17.5898C9.80086 17.1283 10.1254 16.6804 10.1648 16.4881C10.2668 15.9902 9.75447 15.6784 9.40923 15.4595L8.95111 15.2075L8.66479 15.1273L8.50444 15.1503L8.7335 15.6542C9.04888 16.5214 9.06798 16.7922 8.7335 17.6471L8.13795 17.6356C8.66808 16.1268 8.27937 16.6296 8.08058 15.4938C7.95874 15.7931 7.84604 16.0478 7.70718 16.3366C7.51562 16.7351 7.4992 17.0592 7.51944 17.5669L7.06131 17.4524C7.11499 16.343 7.11402 16.1963 7.73704 15.2533L8.18371 14.6005L7.67979 14.0049L7.42781 13.753C7.33961 14.3991 7.39857 14.4235 6.93527 14.8868C6.41927 15.4545 6.38423 15.4302 6.20229 16.1581L6.15642 16.9828L6.12211 17.2004L5.84718 17.1203L5.88159 16.4216L5.40051 16.7079V16.9026L4.96531 16.7079L5.05697 16.5819V16.1696L5.10274 15.7L5.1485 15.3907C4.92222 15.592 4.96406 15.5695 4.66753 15.6313C4.19961 15.7127 4.2677 15.8089 4.18645 16.2498L3.71687 15.9749C3.9093 15.7529 3.96683 15.4976 4.11312 15.3411C4.18628 15.2629 4.2894 15.2035 4.47277 15.1388L4.71333 15.0013L4.87367 14.6922L5.02256 14.1424C5.14336 13.4833 5.13003 13.3322 5.49215 12.7793C6.00656 12.281 6.18308 12.1581 6.83225 11.8403C6.98645 11.676 8.00503 10.6081 7.94513 10.4504C7.86788 10.2476 7.54086 10.2731 7.24381 10.3878C6.68906 10.6019 6.65555 10.9613 6.41989 11.4508C5.78274 12.3076 5.4967 12.5855 4.44992 13.0314L4.32388 13.5009L4.16354 13.9476L3.95739 14.3027L3.72833 14.6692L3.51072 15.0013L3.40763 15.3564L3.36183 15.6542L3.16708 15.4938L3.19003 15.1617L3.28166 14.9097L3.49926 14.4974L3.83145 14.0049L4.04906 13.5009L4.16354 13.0886L3.8543 13.2261C3.43055 13.7141 3.30461 14.0401 2.97242 14.5661L2.69749 15.0128L2.42263 14.6922C2.71197 14.2657 2.90131 13.8025 3.17857 13.3521C2.72843 13.7074 2.46867 13.9028 2.1592 14.3943L1.94159 14.085C2.28461 13.6931 2.53545 13.4625 2.87242 13.2367C3.89197 12.5536 4.43072 12.7571 5.43492 11.9204L5.85864 11.4966C6.15413 10.8505 5.97083 11.0091 5.5151 11.3477C4.651 12.1038 4.73847 12.0462 3.74861 12.4078C3.40364 12.5338 3.23989 12.7329 2.75482 13.1115C2.37607 13.3525 2.0192 13.4854 1.67815 13.7071L1.46055 13.3978C1.8093 13.2017 2.08256 13.1123 2.43413 12.9512L2.64024 12.768C2.10017 12.8293 1.82798 12.8718 1.35746 13.1917L1.19711 12.9512C1.72038 12.675 1.9885 12.6031 2.56006 12.4701L2.98388 12.4473C3.5118 12.0208 3.67534 11.9268 4.34683 11.8403L5.05697 11.2446L5.50364 10.8896L6.12211 10.4314L6.40843 10.1909L5.64104 10.294L5.21732 10.397C4.87277 10.8042 4.69697 11.0724 4.14069 11.1072C3.65874 11.589 3.40485 11.8216 3.06343 11.9332C2.78541 12.0241 2.44923 12.0349 1.88433 12.0349C1.58808 12.2414 1.35499 12.3795 1.03676 12.5503L0.899334 12.2754L1.16274 12.0922L1.47201 11.9547C1.24211 11.8736 1.27676 11.8861 1.03676 11.9318L0.819125 12.0578L0.704612 11.7257C1.24822 11.4538 1.41305 11.4441 2.01031 11.5768C2.43777 11.6364 2.70683 11.6688 2.94798 11.6069C3.18586 11.5458 3.39659 11.393 3.70541 11.0842L3.36183 11.0384L2.88079 10.9927C2.22992 11.2885 1.60232 11.3152 0.899334 11.3592L0.590063 11.3706L0.544264 11.0041C0.942285 10.8993 1.10663 10.8841 1.51781 10.8666C1.9309 10.7864 2.09926 10.763 2.47989 10.5803L1.46055 10.672L0.933674 10.7292L0.44548 10.8123L0.411105 10.5146C1.09829 10.4697 2.38239 10.1481 2.95197 10.317C3.05756 10.3483 3.16888 10.3959 3.29312 10.4657L3.84281 10.5231C4.02503 10.5231 4.73555 10.5469 4.77128 10.3236C4.80604 10.107 4.2959 10.0316 3.81465 10.0088C3.47572 9.99268 3.1511 10.0026 3.04114 10.0076C2.15892 10.1657 1.25409 10.2996 0.358743 10.3523L0.32666 10.042C1.30128 9.95428 2.02683 9.87438 2.98388 9.67553C3.36354 9.62539 3.67979 9.56726 4.06593 9.6222C4.36256 9.66442 4.65392 9.80042 4.94888 9.814C5.35642 9.83279 5.73357 9.62556 6.13944 9.62744C6.50052 9.62914 6.54833 9.82869 7.06781 9.75997C7.27784 9.73223 7.49614 9.67115 7.63277 9.57258C7.78058 9.46584 7.73892 9.38664 7.84006 9.25171ZM13.6071 10.9927C14.5426 11.376 15.7899 11.657 16.3903 12.5274L15.8634 12.4129L15.2678 12.2526L14.7181 12.1953L13.9736 11.3936L13.6071 10.9927ZM12.7137 11.2103C13.5497 11.4436 13.6826 11.6818 14.214 12.2984L13.6185 12.4244C13.3397 11.916 13.1246 11.6212 12.7137 11.2103ZM13.0344 13.5812C13.3822 14.0449 13.5297 14.4364 13.7445 14.9671C13.7037 14.5326 13.6601 14.1059 13.607 13.6728L13.0344 13.5812ZM12.1296 12.5962C12.3519 13.0207 12.6474 13.0738 13.0802 13.249L13.5842 13.3635C13.5117 13.1764 13.4393 12.9894 13.3666 12.8024C12.8875 12.7757 12.5905 12.73 12.1296 12.5962ZM13.2176 12.4473C12.4799 12.3067 11.8943 12.2926 11.3736 11.7372C11.3245 11.6408 11.2606 11.5689 11.1871 11.5073C10.9708 11.3258 10.6705 11.2323 10.4115 10.8667C10.3707 10.6955 10.3463 10.6178 10.3807 10.5673C10.5093 10.3783 10.8777 10.433 11.2062 10.5343C11.7398 10.6985 11.8047 10.7946 12.1807 11.1925C12.5945 11.6303 12.8859 11.9497 13.2176 12.4473ZM8.70486 14.0164L8.63614 14.1309L8.24673 13.6613C7.83038 13.22 7.21527 12.8138 7.56906 12.1462C7.66388 11.9673 8.14496 11.2579 8.40444 11.2978C9.44194 11.457 8.96628 13.3328 8.70486 14.0164ZM5.3719 16.2842C5.3719 15.8754 5.40406 15.7626 5.5094 15.3679L5.78423 14.8296C6.15944 14.1149 6.20041 13.7517 6.11642 12.9398C6.34867 12.7572 6.54433 12.5932 6.8151 12.4702C6.83367 12.8141 6.81517 12.9244 6.91048 13.1078C7.24069 13.7437 7.16024 13.9382 6.74638 14.6005C5.98468 15.2742 6.09534 15.8112 5.3719 16.2842ZM5.41197 14.8353C5.47305 14.3536 5.46149 13.8296 5.74416 13.4151L5.84149 13.312C5.85944 14.0294 5.74319 14.2227 5.41197 14.8353Z" fill="white"/>
<path fill-rule="evenodd" clip-rule="evenodd" d="M7.84827 8.81952H10.1847C10.5516 8.08563 10.9744 8.15247 11.7424 8.08706C12.5321 8.09612 13.2486 7.99667 13.9828 7.99178C15.2066 7.98324 16.095 8.12556 17.4805 7.97167L17.4232 7.73143C16.1788 7.80956 15.0837 7.6572 13.9254 7.69667C13.5342 7.70963 13.214 7.75879 12.8189 7.73143L12.3612 7.5482C11.5369 7.32574 10.8331 7.26209 10.0816 7.73143C10.3659 6.80084 11.2591 6.53942 11.9947 5.83008L12.4072 5.72716C13.7672 5.41338 13.9984 5.7781 15.2092 5.75088C15.6162 5.74261 16.0149 5.62921 16.5987 5.31445L16.6903 5.1772L16.5529 5.15417C16.0671 5.40699 15.6526 5.48494 15.2085 5.48296C14.922 5.48216 14.6233 5.44813 14.285 5.40654C13.3053 5.18358 13.0526 5.28279 12.1093 5.41772C12.7055 4.56511 14.8994 4.41737 15.9576 4.02101L15.7508 3.74546C14.7414 4.05924 14.0846 4.31959 13.0253 4.4556L13.2312 4.23827C13.4115 3.85247 13.5932 3.49213 13.7927 3.11588L14.022 2.68056L14.1704 2.43987L14.3196 2.27942L13.9301 2.01605L13.4833 3.02376L13.0253 3.91765C12.3677 4.72233 12.0164 4.98494 11.2152 5.64733C10.1661 6.50049 9.88532 6.45122 9.2455 7.73143C9.33171 7.06466 9.64327 6.60733 9.85255 5.97869L10.0703 5.56699L10.6543 4.83383L11.433 4.03202C11.6894 3.69817 11.8504 3.50591 12.0177 3.1115C12.1331 2.83931 12.1909 2.61372 12.2348 2.30535C12.2948 1.88546 12.4348 1.60768 12.5897 1.21452L12.1548 1.04233L11.8339 1.92518C11.7683 1.55817 11.7204 1.24147 11.6855 0.870876L11.3875 0.756466C11.5026 1.69365 11.7142 3.09851 10.9766 3.84049C10.5715 4.24813 10.2875 4.5156 9.86383 5.08563C9.53779 4.46535 9.42435 3.95167 8.94765 3.45959L9.05102 3.08112C9.59091 2.9491 9.91671 2.84279 10.1465 2.60813C10.3364 2.41383 10.4605 2.13143 10.5857 1.6724C11.0288 1.20324 11.0826 1.3074 11.2152 0.664556L10.8148 0.584487C10.7697 0.902438 10.7405 0.991848 10.4939 1.20306C10.3537 0.938688 10.2667 0.749626 10.1619 0.469903L9.73814 0.413271C9.85102 0.842438 9.99536 1.17508 10.1847 1.56945C10.0531 1.96483 9.96498 2.18039 9.80105 2.33178C9.67637 2.44643 9.01963 2.77931 8.8889 2.66883C8.69654 2.50598 8.76782 1.80397 8.77074 1.60671C8.77716 1.1981 8.76612 0.801987 8.61546 0.400737L8.10008 0.389556C8.32202 0.94414 8.35244 1.26529 8.39432 1.7091C8.42932 2.08369 8.4705 2.45383 8.50105 2.82928C7.69564 1.92004 7.6023 1.64758 7.44702 0.492924L7.06949 0.561466C7.04452 1.9156 7.36668 2.36956 8.21449 3.41355L7.84827 3.94039L7.24123 4.89088L6.80577 5.55525C6.42338 5.32101 6.25432 5.19018 6.08258 5.00056C5.52071 4.38067 5.60248 4.19789 5.35137 3.43952C5.22202 3.04831 5.06605 2.68136 4.89404 2.56181C4.78869 2.48858 4.70373 2.53463 4.42303 2.32546C4.30345 2.23577 4.26942 2.10785 4.1489 1.81001L3.85084 2.00501C4.00168 2.45577 4.16116 2.59515 4.45973 2.72254C4.68366 2.81754 4.76525 2.81952 4.8289 2.87532C5.0055 3.03213 5.2206 4.23042 5.39279 4.64421C5.49296 4.88421 5.62161 5.10768 5.83005 5.32199C6.05956 5.5572 6.79393 6.17987 7.08105 6.3915C7.37821 6.67931 7.62293 6.77265 7.64987 7.17924C7.66383 7.3931 7.67164 7.65914 7.61067 7.66456C7.57512 7.66699 7.30987 7.5372 7.10827 7.43647C6.83439 7.29976 6.69352 7.12049 6.58105 6.90563C6.30282 6.37338 6.32755 6.2516 5.79654 5.77345C5.49643 5.50226 5.17182 5.34011 4.66407 5.15417C4.27112 5.00796 3.96959 4.9298 3.67883 4.63907L3.32435 4.04334L2.87734 3.36796L2.64827 3.02376L2.37341 3.31042L2.83154 4.0891C3.49883 5.16716 3.49119 5.22574 4.67557 5.58973C5.12185 5.85747 6.02647 6.39372 5.97022 6.96324C5.94025 7.26723 5.58925 7.40779 5.36265 7.5482L4.76748 7.72011C4.29591 7.91025 4.06196 7.98004 3.79057 7.99133C3.159 8.01754 2.39946 7.84921 1.76327 7.7691C1.31376 7.71258 0.864768 7.67435 0.39199 7.67435L0.346191 7.96039C0.879212 7.99525 1.36275 8.06476 1.83991 8.14313C2.83255 8.30556 3.31706 8.43834 3.77803 8.42563C4.08845 8.41754 4.388 8.34261 4.82452 8.16671C5.59393 8.10494 6.32949 8.15417 7.09234 8.24678C7.63494 8.39355 7.60018 8.32324 7.84827 8.81952ZM7.36987 4.24369C7.14036 3.63035 6.25803 3.84296 5.98727 4.24758C6.43564 4.60404 6.87112 4.65549 7.46737 4.3924C7.05216 4.07931 6.69449 4.18591 6.35963 4.10112C6.65039 4.17115 6.97182 4.00706 7.36987 4.24369ZM7.74123 3.96494C8.21796 3.29765 7.3806 2.52973 6.77091 2.53098C6.71341 3.24643 6.9647 3.73445 7.65432 4.17042C7.69032 3.52032 7.32942 3.22296 7.18293 2.8156C7.31324 3.16706 7.70862 3.38608 7.74123 3.96494ZM9.05421 1.80535C9.75699 1.72067 9.75821 0.740563 9.40275 0.353271C8.91359 0.732751 8.74897 1.17702 8.87314 1.8698C9.30772 1.5139 9.2872 1.11088 9.46133 0.78091C9.31334 1.06858 9.404 1.44779 9.05421 1.80535ZM10.2099 4.38796C10.6741 3.85709 10.0223 3.13063 9.50081 3.07987C9.39171 3.68716 9.56498 4.12535 10.1186 4.55647C10.204 4.00289 9.92036 3.71869 9.82949 3.35789C9.9113 3.66956 10.231 3.88973 10.2099 4.38796ZM10.8103 3.81869C11.3338 3.44466 10.9073 2.66296 10.4551 2.50865C10.2307 3.02529 10.2927 3.45122 10.6944 3.94928C10.8853 3.47595 10.6934 3.16414 10.6883 2.82494C10.6956 3.11834 10.9332 3.38091 10.8103 3.81869ZM10.7997 5.16476C11.2968 5.57285 11.9411 4.95897 11.9726 4.48181C11.4164 4.39879 11.0207 4.56928 10.6434 5.08563C11.1503 5.14831 11.4016 4.88154 11.7282 4.78921C11.4462 4.87202 11.2541 5.16963 10.7997 5.16476ZM12.8188 3.46199C11.9143 2.9915 12.4091 1.66945 13.0845 1.32654C13.5516 2.08678 13.5494 2.76883 13.0301 3.64039C12.6242 2.94032 12.8564 2.40796 12.7883 1.87445C12.8428 2.33692 12.528 2.80233 12.8188 3.46199ZM12.8418 3.94341C12.6205 4.36563 12.003 4.13275 11.844 3.81577C12.1997 3.59897 12.5189 3.60091 12.9261 3.84438C12.5978 4.03355 12.3491 3.92404 12.0997 3.95515C12.3163 3.93063 12.5331 4.0781 12.8418 3.94341ZM13.9283 3.11487C14.0388 2.57772 14.7958 2.6397 15.0723 2.93931C14.747 3.29247 14.3938 3.3915 13.8667 3.25018C14.1691 2.93754 14.479 2.97994 14.7453 2.86654C14.5136 2.96233 14.227 2.86779 13.9283 3.11487ZM4.91199 2.30581C5.4031 2.20414 5.3463 1.51213 5.07244 1.25987C4.74932 1.55647 4.65893 1.88011 4.788 2.36147C5.07387 2.08483 5.03564 1.80192 5.13928 1.55817C5.05112 1.77008 5.13803 2.03223 4.91199 2.30581ZM5.70932 3.31799C6.88116 3.07595 6.74567 1.42518 6.09216 0.821917C5.3215 1.53105 5.10647 2.30192 5.41289 3.45247C6.09557 2.7916 6.004 2.11577 6.25112 1.53542C6.04241 2.04004 6.24817 2.66643 5.70932 3.31799ZM1.65893 7.474C1.72897 6.88779 0.935566 6.694 0.551226 6.90535C0.762615 7.37622 1.08963 7.5972 1.67508 7.63345C1.473 7.21088 1.14255 7.14841 0.909594 6.94233C1.11289 7.11897 1.43821 7.11994 1.65893 7.474ZM3.90275 7.68758C3.98772 6.96858 3.01449 6.73025 2.54345 6.98945C2.80265 7.56779 3.20366 7.83942 3.92282 7.88351C3.67421 7.36494 3.26907 7.28831 2.98293 7.03525C3.23279 7.25202 3.63154 7.25327 3.90275 7.68758ZM2.97723 4.88699C2.52949 5.45549 1.67237 4.93542 1.52272 4.41862C2.11477 4.19345 2.59074 4.28511 3.12987 4.76279C2.58827 4.95338 2.24727 4.72084 1.86612 4.69782C2.19609 4.72136 2.479 5.00181 2.97723 4.88699ZM4.00098 4.68678C4.51091 4.99053 5.01387 4.34067 4.97591 3.90119C4.45706 3.90296 4.12001 4.1131 3.84765 4.63685C4.31866 4.62341 4.51091 4.34511 4.79581 4.21605C4.55012 4.33042 4.41643 4.62876 4.00098 4.68678ZM3.80133 4.16386C4.5239 3.75914 4.08942 2.69799 3.53234 2.43667C3.17199 3.06518 3.19112 3.61931 3.63449 4.31345C3.9463 3.73515 3.7447 3.30865 3.7864 2.87435C3.75376 3.25063 4.02053 3.62049 3.80133 4.16386ZM3.62178 5.70466C3.47501 7.09595 1.5389 7.12803 0.762372 6.43754C1.49848 5.45994 2.3705 5.12011 3.74373 5.34501C3.05352 6.21487 2.25706 6.18574 1.61043 6.53994C2.17359 6.23862 2.92505 6.40671 3.62178 5.70466ZM5.17164 6.20233C5.04525 6.92056 4.03699 6.86796 3.65803 6.48067C4.07616 5.99851 4.5423 5.85327 5.2481 6.01959C4.85803 6.44733 4.44407 6.40351 4.09557 6.56438C4.39876 6.42848 4.78383 6.54261 5.17164 6.20233ZM14.1182 7.43258C13.6388 7.00414 14.1471 6.27292 14.6135 6.16928C14.7804 6.70626 14.6728 7.12313 14.2201 7.57515C14.081 7.08351 14.3053 6.79445 14.347 6.45789C14.3085 6.74883 14.0437 6.98431 14.1182 7.43258ZM14.675 4.80466C14.9807 5.58733 16.107 5.29827 16.447 4.77497C15.8655 4.32529 15.3065 4.26723 14.5471 4.61549C15.0846 5.00963 15.5417 4.86636 15.9723 4.969C15.5985 4.88404 15.1897 5.10056 14.675 4.80466ZM11.8523 7.04261C11.7869 6.06476 13.1193 5.8107 13.738 6.19452C13.3475 6.95754 12.7859 7.2964 11.8109 7.30563C12.1833 6.62244 12.7369 6.54706 13.1406 6.22518C12.7881 6.50049 12.2487 6.47424 11.8523 7.04261ZM14.6704 7.19025C14.8009 5.95035 16.5267 5.92164 17.2189 6.53772C16.5627 7.409 15.7857 7.7116 14.5613 7.51115C15.1767 6.73567 15.8861 6.76164 16.4629 6.44608C15.9611 6.71435 15.2911 6.56438 14.6704 7.19025ZM8.28355 7.94921C8.26446 7.37178 8.31859 7.06216 8.17598 6.67365C7.98425 6.15115 7.41324 5.97452 7.41057 5.77588C7.40685 5.53001 8.10178 4.60598 8.27182 4.35247L8.61546 3.89463C8.80213 4.32233 9.11466 5.13924 9.08925 5.57924C9.0598 6.10803 8.45946 7.16456 8.28355 7.94921Z" fill="#0DBBB4"/>
</svg>
